<svg width="30" height="34" viewBox="0 0 30 34" fill="none" xmlns="http://www.w3.org/2000/svg">
<path d="M28.6 19.8333H24.6333V0.566667C24.6333 0.253725 24.3796 0 24.0667 0H5.93334C5.62039 0 5.36667 0.253725 5.36667 0.566667V19.8333H1.4C1.24551 19.8333 1.09768 19.8964 0.990797 20.0079C0.77426 20.2339 0.78191 20.5926 1.00787 20.8091L14.6079 33.8425C14.7134 33.9435 14.8539 34 15 34C15.1461 34 15.2867 33.9435 15.3921 33.8425L28.9921 20.8091C29.1037 20.7022 29.1667 20.5544 29.1667 20.3999C29.1667 20.087 28.9129 19.8333 28.6 19.8333ZM15 32.6485L2.80987 20.9667H5.93334C6.24628 20.9667 6.5 20.7129 6.5 20.4V1.13333H23.5V20.4C23.5 20.7129 23.7537 20.9667 24.0667 20.9667H27.1901L15 32.6485Z" fill="#75DFBC" stroke="#75DFBC" stroke-width="0.75"/>
<path d="M15 7.61538C16.4728 7.61538 17.6667 8.78634 17.6667 10.2308H19C18.9964 8.31851 17.5888 6.68684 15.6667 6.36654V5H14.3333V6.36654C12.1573 6.74021 10.7021 8.77318 11.0831 10.9074C11.4167 12.776 13.0657 14.1429 15 14.1538C16.4728 14.1538 17.6667 15.3248 17.6667 16.7692C17.6667 18.2137 16.4728 19.3846 15 19.3846C13.5273 19.3846 12.3333 18.2137 12.3333 16.7692H11C11.0036 18.6815 12.4112 20.3132 14.3333 20.6335V22H15.6667V20.6335C17.8427 20.2598 19.2979 18.2268 18.9169 16.0926C18.5833 14.224 16.9343 12.8571 15 12.8462C13.5273 12.8462 12.3333 11.6752 12.3333 10.2308C12.3333 8.78634 13.5273 7.61538 15 7.61538Z" fill="#75DFBC"/>
</svg>
