<svg width="19" height="20" viewBox="0 0 19 20" fill="none" xmlns="http://www.w3.org/2000/svg">
<path d="M16.5219 8.47185V5.9935H14.8697V8.47185H12.3913V10.1241H14.8697V12.6024H16.5219V10.1241H19.0002V8.47185H16.5219ZM10.1608 11.2806L9.25204 10.6198C8.92159 10.372 8.59118 10.0415 8.59118 9.46319C8.59118 8.88491 9.00423 8.38924 9.41729 8.14141C10.4912 7.31529 11.5652 6.40656 11.5652 4.58911C11.5652 2.85426 10.4912 1.86293 9.91296 1.36726H11.3174L12.3087 0.210693H7.18678C3.55187 0.210693 1.73441 2.52382 1.73441 5.00217C1.73441 6.90223 3.22142 8.96752 5.86499 8.96752H6.52589C6.44327 9.21536 6.19544 9.62841 6.19544 10.0415C6.19544 10.8676 6.52589 11.198 6.93894 11.6937C5.78238 11.7763 3.63448 12.0241 2.06486 13.0155C0.577853 13.9242 0.164795 15.1634 0.164795 16.0721C0.164795 17.9722 1.89964 19.7896 5.61716 19.7896C10.0782 19.7896 12.2261 17.3113 12.2261 14.9156C12.2261 13.1807 11.3174 12.272 10.1608 11.2806ZM3.88232 3.76299C3.88232 1.94554 4.95627 1.11942 6.11283 1.11942C8.26073 1.11942 9.41729 4.01083 9.41729 5.66306C9.41729 7.81096 7.68245 8.22402 7.02156 8.22402C4.95627 8.22402 3.88232 5.66306 3.88232 3.76299ZM6.8563 18.6331C4.13012 18.6331 2.39528 17.3939 2.39528 15.5764C2.39528 13.759 4.04751 13.1807 4.54318 12.9328C5.61713 12.6024 7.02152 12.5198 7.26936 12.5198C7.51719 12.5198 7.68242 12.5198 7.84764 12.5198C9.83032 13.9242 10.6564 14.5025 10.6564 15.8243C10.6564 17.3939 9.08685 18.6331 6.8563 18.6331Z" fill="#848BA4"/>
</svg>
