<svg width="49" height="50" viewBox="0 0 49 50" fill="none" xmlns="http://www.w3.org/2000/svg">
<path d="M41.6972 34.7282L42.4046 27.1508C42.7257 27.317 43.0838 27.4194 43.4677 27.4194C44.7748 27.4194 45.8387 26.3337 45.8387 25V15.5348C45.8387 14.1015 44.896 12.8264 43.5461 12.4331L40.3064 11.4888V10.0484C41.2739 9.16197 41.8871 7.88062 41.8871 6.45161V4.83871C41.8871 2.1701 39.7604 0 37.1452 0C34.5299 0 32.4032 2.1701 32.4032 4.83871V6.45161C32.4032 7.87984 33.0164 9.16118 33.9839 10.0484V11.4888L30.7442 12.4331C29.3944 12.8257 28.4516 14.1015 28.4516 15.5348V16.5582L27.6613 16.3275V14.8871C28.6287 14.0007 29.2419 12.7193 29.2419 11.2903V9.67742C29.2419 7.00881 27.1152 4.83871 24.5 4.83871C21.8848 4.83871 19.7581 7.00881 19.7581 9.67742V11.2903C19.7581 12.7185 20.3713 13.9999 21.3387 14.8871V16.3275L20.5484 16.5582V15.5348C20.5484 14.1015 19.6056 12.8264 18.2558 12.4331L15.0161 11.4888V10.0484C15.9836 9.16197 16.5968 7.88062 16.5968 6.45161V4.83871C16.5968 2.1701 14.4701 0 11.8548 0C9.2396 0 7.1129 2.1701 7.1129 4.83871V6.45161C7.1129 7.87984 7.7261 9.16118 8.69355 10.0484V11.4888L5.45392 12.4331C4.10404 12.8257 3.16129 14.1015 3.16129 15.5348V25C3.16129 26.3337 4.22522 27.4194 5.53226 27.4194C5.91623 27.4194 6.27434 27.317 6.59541 27.1508L7.30277 34.7282C2.59054 36.3671 0 38.6266 0 41.129C0 45.4298 8.58704 50 24.5 50C40.413 50 49 45.4298 49 41.129C49 38.6266 46.4095 36.3671 41.6972 34.7282ZM34.7024 40.3226L33.2719 25H36.3548V40.3226H34.7024ZM37.9355 25H41.0184L39.5879 40.3226H37.9355V25ZM33.9839 4.83871C33.9839 3.05963 35.4017 1.6129 37.1452 1.6129C38.8887 1.6129 40.3064 3.05963 40.3064 4.83871V6.45161C40.3064 8.23069 38.8887 9.67742 37.1452 9.67742C35.4017 9.67742 33.9839 8.23069 33.9839 6.45161V4.83871ZM37.1452 11.2903C37.7001 11.2903 38.2303 11.1872 38.7258 11.008V11.8743C38.5298 12.183 37.9853 12.9032 37.1452 12.9032C36.3035 12.9032 35.7582 12.1799 35.5645 11.8751V11.008C36.06 11.1872 36.5902 11.2903 37.1452 11.2903ZM30.0323 15.5348C30.0323 14.8185 30.5042 14.1806 31.1784 13.9837L34.4342 13.0347C34.8934 13.6443 35.7849 14.5161 37.1452 14.5161C38.5055 14.5161 39.3969 13.6443 39.8553 13.0347L43.1112 13.9837C43.7861 14.1806 44.2573 14.8185 44.2573 15.5348V25C44.2573 25.4442 43.903 25.8065 43.467 25.8065C43.0305 25.8065 42.6766 25.4442 42.6766 25V16.9355H41.096V23.3871H33.1936V16.9355H31.6129V17.5927C31.391 17.4604 31.156 17.3458 30.9009 17.2718L30.0323 17.0186V15.5348ZM21.3387 9.67742C21.3387 7.89834 22.7565 6.45161 24.5 6.45161C26.2435 6.45161 27.6613 7.89834 27.6613 9.67742V11.2903C27.6613 13.0694 26.2435 14.5161 24.5 14.5161C22.7565 14.5161 21.3387 13.0694 21.3387 11.2903V9.67742ZM24.5 16.129C25.0549 16.129 25.5852 16.0259 26.0806 15.8467V16.713C25.8846 17.0217 25.3401 17.7419 24.5 17.7419C23.6599 17.7419 23.1154 17.0217 22.9194 16.713V15.8467C23.4149 16.0259 23.9451 16.129 24.5 16.129ZM21.7898 17.8735C22.2483 18.483 23.1397 19.3548 24.5 19.3548C25.8603 19.3548 26.7517 18.483 27.2102 17.8735L30.466 18.8225C31.1409 19.0193 31.6121 19.6573 31.6121 20.3735V29.8387C31.6121 30.2829 31.2579 30.6452 30.8218 30.6452C30.3854 30.6452 30.0315 30.2829 30.0315 29.8387V21.7742H28.4508V28.2258H20.5484V21.7742H18.9677V29.8387C18.9677 30.2829 18.6135 30.6452 18.1774 30.6452C17.7414 30.6452 17.3871 30.2829 17.3871 29.8387V20.3735C17.3871 19.6573 17.8591 19.0193 18.5332 18.8225L21.7898 17.8735ZM22.0573 45.1613L20.6267 29.8387H23.7097V45.1613H22.0573ZM25.2903 29.8387H28.3733L26.9427 45.1613H25.2903V29.8387ZM9.41209 40.3226L7.98156 25H11.0645V40.3226H9.41209ZM12.6452 25H15.7281L14.2976 40.3226H12.6452V25ZM8.69355 4.83871C8.69355 3.05963 10.1113 1.6129 11.8548 1.6129C13.5983 1.6129 15.0161 3.05963 15.0161 4.83871V6.45161C15.0161 8.23069 13.5983 9.67742 11.8548 9.67742C10.1113 9.67742 8.69355 8.23069 8.69355 6.45161V4.83871ZM11.8548 11.2903C12.4098 11.2903 12.94 11.1872 13.4355 11.008V11.8743C13.2394 12.183 12.6949 12.9032 11.8548 12.9032C11.0147 12.9032 10.4702 12.183 10.2742 11.8743V11.008C10.7697 11.1872 11.2999 11.2903 11.8548 11.2903ZM5.53226 25.8065C5.09619 25.8065 4.74194 25.4442 4.74194 25V15.5348C4.74194 14.8185 5.21389 14.1806 5.88806 13.9837L9.14389 13.0347C9.60311 13.6443 10.4945 14.5161 11.8548 14.5161C13.2151 14.5161 14.1066 13.6443 14.565 13.0347L17.8208 13.9837C18.4958 14.1806 18.967 14.8185 18.967 15.5348V17.0186L18.0983 17.2718C17.8432 17.3458 17.6082 17.4604 17.3863 17.5927V16.9355H15.8057V23.3871H7.90323V16.9355H6.32258V25C6.32258 25.4442 5.96832 25.8065 5.53226 25.8065ZM24.5 48.3871C10.9935 48.3871 1.58065 44.562 1.58065 41.129C1.58065 39.4701 3.75943 37.7248 7.45674 36.3797L7.975 41.9355H15.7347L16.6894 31.7064C17.0977 32.0458 17.6109 32.2581 18.1774 32.2581C18.5614 32.2581 18.9195 32.1557 19.2406 31.9895L20.6202 46.7742H28.3798L29.7594 31.9895C30.0805 32.1557 30.4386 32.2581 30.8226 32.2581C31.3891 32.2581 31.9023 32.0458 32.3106 31.7064L33.2653 41.9355H41.025L41.5433 36.3797C45.2406 37.7248 47.4194 39.4701 47.4194 41.129C47.4194 44.562 38.0065 48.3871 24.5 48.3871Z" fill="#75DFBC"/>
</svg>
