<?xml version="1.0" encoding="UTF-8"?>
<svg width="19px" height="20px" viewBox="0 0 19 20" version="1.1" xmlns="http://www.w3.org/2000/svg" xmlns:xlink="http://www.w3.org/1999/xlink">
    <!-- Generator: sketchtool 55.2 (78181) - https://sketchapp.com -->
    <title>ECEBEFD7-8466-4835-A364-57AD7300FE20</title>
    <desc>Created with sketchtool.</desc>
    <g id="Page-3" stroke="none" stroke-width="1" fill="none" fill-rule="evenodd">
        <g id="Home-page-2" transform="translate(-1178.000000, -24.000000)" fill="#000000">
            <g id="Header" transform="translate(160.000000, 15.000000)">
                <path d="M1031.81112,22.3983689 L1037.00354,27.5907939 L1035.59433,29 L1030.27654,23.6822056 C1029.03492,24.480365 1027.55737,24.9433471 1025.97167,24.9433471 C1021.56904,24.9433471 1018,21.3743073 1018,16.9716735 C1018,12.5690398 1021.56904,9 1025.97167,9 C1030.37431,9 1033.94335,12.5690398 1033.94335,16.9716735 C1033.94335,19.0679998 1033.13417,20.9753324 1031.81112,22.3983689 Z M1025.97167,22.9504287 C1029.27365,22.9504287 1031.95043,20.2736488 1031.95043,16.9716735 C1031.95043,13.6696982 1029.27365,10.9929184 1025.97167,10.9929184 C1022.6697,10.9929184 1019.99292,13.6696982 1019.99292,16.9716735 C1019.99292,20.2736488 1022.6697,22.9504287 1025.97167,22.9504287 Z" id="Combined-Shape"></path>
            </g>
        </g>
    </g>
</svg>